<svg width="400" height="220" xmlns="http://www.w3.org/2000/svg">
  <defs>
    <linearGradient id="aiBg" x1="0%" y1="0%" x2="100%" y2="100%">
      <stop offset="0%" style="stop-color:#581c87;stop-opacity:1" />
      <stop offset="100%" style="stop-color:#7c3aed;stop-opacity:1" />
    </linearGradient>
  </defs>
  <rect width="400" height="220" fill="url(#aiBg)"/>
  
  <!-- Neural network visualization -->
  <!-- Input layer -->
  <circle cx="80" cy="60" r="6" fill="rgba(255,255,255,0.9)"/>
  <circle cx="80" cy="90" r="6" fill="rgba(255,255,255,0.9)"/>
  <circle cx="80" cy="120" r="6" fill="rgba(255,255,255,0.9)"/>
  <circle cx="80" cy="150" r="6" fill="rgba(255,255,255,0.9)"/>
  
  <!-- Hidden layer 1 -->
  <circle cx="160" cy="75" r="6" fill="rgba(255,255,255,0.8)"/>
  <circle cx="160" cy="105" r="6" fill="rgba(255,255,255,0.8)"/>
  <circle cx="160" cy="135" r="6" fill="rgba(255,255,255,0.8)"/>
  
  <!-- Hidden layer 2 -->
  <circle cx="240" cy="90" r="6" fill="rgba(255,255,255,0.7)"/>
  <circle cx="240" cy="120" r="6" fill="rgba(255,255,255,0.7)"/>
  
  <!-- Output layer -->
  <circle cx="320" cy="105" r="6" fill="rgba(255,255,255,0.9)"/>
  
  <!-- Connections -->
  <line x1="86" y1="60" x2="154" y2="75" stroke="rgba(255,255,255,0.4)" stroke-width="1"/>
  <line x1="86" y1="90" x2="154" y2="75" stroke="rgba(255,255,255,0.4)" stroke-width="1"/>
  <line x1="86" y1="90" x2="154" y2="105" stroke="rgba(255,255,255,0.4)" stroke-width="1"/>
  <line x1="86" y1="120" x2="154" y2="105" stroke="rgba(255,255,255,0.4)" stroke-width="1"/>
  <line x1="86" y1="120" x2="154" y2="135" stroke="rgba(255,255,255,0.4)" stroke-width="1"/>
  <line x1="86" y1="150" x2="154" y2="135" stroke="rgba(255,255,255,0.4)" stroke-width="1"/>
  
  <line x1="166" y1="75" x2="234" y2="90" stroke="rgba(255,255,255,0.4)" stroke-width="1"/>
  <line x1="166" y1="105" x2="234" y2="90" stroke="rgba(255,255,255,0.4)" stroke-width="1"/>
  <line x1="166" y1="105" x2="234" y2="120" stroke="rgba(255,255,255,0.4)" stroke-width="1"/>
  <line x1="166" y1="135" x2="234" y2="120" stroke="rgba(255,255,255,0.4)" stroke-width="1"/>
  
  <line x1="246" y1="90" x2="314" y2="105" stroke="rgba(255,255,255,0.4)" stroke-width="1"/>
  <line x1="246" y1="120" x2="314" y2="105" stroke="rgba(255,255,255,0.4)" stroke-width="1"/>
  
  <!-- AI Brain icon -->
  <path d="M 350 50 Q 370 30 390 50 Q 390 70 370 90 Q 350 90 330 70 Q 330 50 350 50" fill="rgba(255,255,255,0.2)" stroke="rgba(255,255,255,0.4)" stroke-width="1"/>
  <circle cx="340" cy="60" r="2" fill="rgba(255,255,255,0.6)"/>
  <circle cx="360" cy="65" r="2" fill="rgba(255,255,255,0.6)"/>
  <circle cx="380" cy="60" r="2" fill="rgba(255,255,255,0.6)"/>
  
  <!-- Main text -->
  <text x="200" y="190" font-family="Inter, Arial" font-size="24" font-weight="700" fill="white" text-anchor="middle">Artificial Intelligence</text>
  <text x="200" y="210" font-family="Inter, Arial" font-size="13" fill="rgba(255,255,255,0.9)" text-anchor="middle">Machine Learning • Deep Learning • Neural Networks</text>
</svg>