<svg width="400" height="220" xmlns="http://www.w3.org/2000/svg">
  <defs>
    <linearGradient id="dataBg" x1="0%" y1="0%" x2="100%" y2="100%">
      <stop offset="0%" style="stop-color:#7c2d12;stop-opacity:1" />
      <stop offset="100%" style="stop-color:#ea580c;stop-opacity:1" />
    </linearGradient>
  </defs>
  <rect width="400" height="220" fill="url(#dataBg)"/>
  
  <!-- Chart background -->
  <rect x="60" y="60" width="120" height="80" fill="rgba(255,255,255,0.1)" rx="8"/>
  
  <!-- Bar chart -->
  <rect x="75" y="120" width="12" height="15" fill="rgba(255,255,255,0.9)"/>
  <rect x="92" y="110" width="12" height="25" fill="rgba(255,255,255,0.9)"/>
  <rect x="109" y="100" width="12" height="35" fill="rgba(255,255,255,0.9)"/>
  <rect x="126" y="95" width="12" height="40" fill="rgba(255,255,255,0.9)"/>
  <rect x="143" y="105" width="12" height="30" fill="rgba(255,255,255,0.9)"/>
  
  <!-- Pie chart -->
  <circle cx="280" cy="100" r="35" fill="rgba(255,255,255,0.1)"/>
  <path d="M 280 65 A 35 35 0 0 1 315 100 L 280 100 Z" fill="rgba(255,255,255,0.7)"/>
  <path d="M 315 100 A 35 35 0 0 1 280 135 L 280 100 Z" fill="rgba(255,255,255,0.5)"/>
  <path d="M 280 135 A 35 35 0 0 1 245 100 L 280 100 Z" fill="rgba(255,255,255,0.3)"/>
  
  <!-- Data points -->
  <circle cx="100" cy="50" r="3" fill="#fbbf24"/>
  <circle cx="150" cy="40" r="3" fill="#fbbf24"/>
  <circle cx="200" cy="45" r="3" fill="#fbbf24"/>
  <circle cx="250" cy="35" r="3" fill="#fbbf24"/>
  <circle cx="300" cy="50" r="3" fill="#fbbf24"/>
  
  <!-- Connecting lines -->
  <polyline points="100,50 150,40 200,45 250,35 300,50" stroke="rgba(251,191,36,0.6)" stroke-width="2" fill="none"/>
  
  <!-- Main text -->
  <text x="200" y="180" font-family="Inter, Arial" font-size="26" font-weight="700" fill="white" text-anchor="middle">Data Science</text>
  <text x="200" y="200" font-family="Inter, Arial" font-size="14" fill="rgba(255,255,255,0.9)" text-anchor="middle">Python • Pandas • Machine Learning</text>
  <text x="200" y="215" font-family="Inter, Arial" font-size="11" fill="rgba(255,255,255,0.7)" text-anchor="middle">Real Projects • Industry Ready</text>
</svg>