<svg width="400" height="220" xmlns="http://www.w3.org/2000/svg">
  <defs>
    <linearGradient id="webBg" x1="0%" y1="0%" x2="100%" y2="100%">
      <stop offset="0%" style="stop-color:#0f172a;stop-opacity:1" />
      <stop offset="100%" style="stop-color:#1e293b;stop-opacity:1" />
    </linearGradient>
  </defs>
  <rect width="400" height="220" fill="url(#webBg)"/>
  
  <!-- Browser window mockup -->
  <rect x="60" y="50" width="280" height="120" fill="rgba(255,255,255,0.1)" rx="8"/>
  <rect x="60" y="50" width="280" height="25" fill="rgba(255,255,255,0.2)" rx="8 8 0 0"/>
  
  <!-- Browser dots -->
  <circle cx="75" cy="62" r="3" fill="#ef4444"/>
  <circle cx="90" cy="62" r="3" fill="#f59e0b"/>
  <circle cx="105" cy="62" r="3" fill="#10b981"/>
  
  <!-- Code elements -->
  <rect x="80" y="90" width="60" height="8" fill="#e11d48" opacity="0.8" rx="2"/>
  <rect x="150" y="90" width="80" height="8" fill="#3b82f6" opacity="0.8" rx="2"/>
  <rect x="240" y="90" width="70" height="8" fill="#f59e0b" opacity="0.8" rx="2"/>
  
  <rect x="80" y="105" width="100" height="6" fill="rgba(255,255,255,0.4)" rx="2"/>
  <rect x="190" y="105" width="60" height="6" fill="rgba(255,255,255,0.4)" rx="2"/>
  
  <rect x="80" y="120" width="80" height="6" fill="rgba(255,255,255,0.4)" rx="2"/>
  <rect x="170" y="120" width="90" height="6" fill="rgba(255,255,255,0.4)" rx="2"/>
  
  <!-- Main text -->
  <text x="200" y="200" font-family="Inter, Arial" font-size="28" font-weight="700" fill="white" text-anchor="middle">Web Development</text>
  <text x="200" y="215" font-family="Inter, Arial" font-size="12" fill="rgba(255,255,255,0.7)" text-anchor="middle">HTML • CSS • JavaScript • React • Node.js</text>
</svg>